<!-- Generated by IcoMoon.io -->
<svg version="1.1" xmlns="http://www.w3.org/2000/svg" width="32" height="32" viewBox="0 0 32 32">
<title>close</title>
<path d="M29.37 0.57l-13.37 13.373-13.373-13.373c-0.568-0.568-1.488-0.568-2.057 0s-0.568 1.489 0 2.057l13.373 13.373-13.374 13.37c-0.567 0.568-0.568 1.488-0.001 2.057l0.002 0.001c0.567 0.569 1.489 0.57 2.058 0.001l13.372-13.372 13.369 13.372c0.568 0.568 1.489 0.568 2.058-0.001l0.002-0.002c0.567-0.568 0.566-1.488-0.001-2.056l-13.371-13.37 13.37-13.373c0.568-0.568 0.568-1.488 0-2.057s-1.489-0.568-2.057 0z"></path>
</svg>
