<svg width="20" height="20" viewBox="0 0 20 20" fill="none" xmlns="http://www.w3.org/2000/svg">
<path fill-rule="evenodd" clip-rule="evenodd" d="M1.37599 15.8469L15.8468 1.37607C16.6036 0.619274 17.842 0.619275 18.5988 1.37607C19.3556 2.13287 19.3556 3.37126 18.5988 4.12805L4.12798 18.5989C3.37118 19.3557 2.13279 19.3557 1.37599 18.5989C0.619196 17.8421 0.619196 16.6037 1.37599 15.8469Z" fill="white"/>
<path fill-rule="evenodd" clip-rule="evenodd" d="M4.12794 1.37599L18.5988 15.8468C19.3556 16.6036 19.3556 17.842 18.5988 18.5988C17.842 19.3556 16.6036 19.3556 15.8468 18.5988L1.37596 4.12798C0.619165 3.37118 0.619166 2.13279 1.37596 1.37599C2.13276 0.619196 3.37115 0.619196 4.12794 1.37599Z" fill="white"/>
</svg>
