<svg width="34" height="43" viewBox="0 0 34 43" fill="none" xmlns="http://www.w3.org/2000/svg">
<path d="M24.7554 7.56794C24.0972 5.35702 22.6758 3.45891 20.7503 2.21941C18.8248 0.979912 16.5233 0.481509 14.265 0.815001C12.0067 1.14849 9.94202 2.29169 8.44701 4.03631C6.95199 5.78094 6.12618 8.0109 6.12 10.3199V10.4575C4.46739 10.7971 2.99842 11.7458 1.99826 13.1194C0.998107 14.4931 0.538117 16.1938 0.707592 17.8914C0.877066 19.5889 1.66391 21.1622 2.91539 22.3058C4.16686 23.4493 5.79366 24.0817 7.48 24.0799H11.56C11.9207 24.0799 12.2666 23.935 12.5217 23.6769C12.7767 23.4189 12.92 23.0689 12.92 22.7039C12.92 22.339 12.7767 21.989 12.5217 21.731C12.2666 21.4729 11.9207 21.3279 11.56 21.3279H7.48C6.39792 21.3366 5.35675 20.91 4.58554 20.142C3.81434 19.374 3.37627 18.3274 3.3677 17.2326C3.35913 16.1378 3.78077 15.0844 4.53986 14.3041C5.29895 13.5238 6.33332 13.0806 7.4154 13.0719H7.582C7.78082 13.0684 7.97684 13.0239 8.15807 12.9411C8.33929 12.8583 8.50192 12.7389 8.636 12.5903C8.76593 12.4373 8.86101 12.2571 8.91447 12.0627C8.96794 11.8684 8.9785 11.6644 8.9454 11.4655C8.75469 10.5532 8.74927 9.61114 8.92948 8.69665C9.10968 7.78216 9.47174 6.91428 9.99366 6.14572C10.5156 5.37717 11.1865 4.72398 11.9656 4.22583C12.7447 3.72769 13.6158 3.39498 14.5259 3.24793C15.436 3.10088 16.3662 3.14255 17.2599 3.37041C18.1536 3.59827 18.9922 4.00757 19.7247 4.57343C20.4573 5.1393 21.0685 5.84993 21.5212 6.66215C21.974 7.47437 22.2588 8.37123 22.3584 9.29826C22.3858 9.48473 22.4507 9.66352 22.5493 9.82353C22.6478 9.98355 22.7777 10.1214 22.9311 10.2285C23.0844 10.3355 23.2579 10.4096 23.4407 10.4461C23.6235 10.4825 23.8118 10.4806 23.9938 10.4403C24.3772 10.3583 24.7681 10.318 25.16 10.3199C26.6028 10.3199 27.9865 10.8998 29.0067 11.932C30.0269 12.9642 30.6 14.3642 30.6 15.8239C30.6 17.2837 30.0269 18.6837 29.0067 19.7159C27.9865 20.7481 26.6028 21.3279 25.16 21.3279H22.44C22.0793 21.3279 21.7334 21.4729 21.4783 21.731C21.2233 21.989 21.08 22.339 21.08 22.7039C21.08 23.0689 21.2233 23.4189 21.4783 23.6769C21.7334 23.935 22.0793 24.0799 22.44 24.0799H25.16C26.2316 24.0531 27.2874 23.8129 28.2673 23.3732C29.2471 22.9334 30.1318 22.3027 30.8707 21.5171C31.6097 20.7314 32.1884 19.8062 32.574 18.7943C32.9595 17.7823 33.1443 16.7035 33.1177 15.6193C33.0911 14.5351 32.8538 13.4668 32.4191 12.4754C31.9845 11.484 31.3612 10.589 30.5846 9.84134C29.8081 9.0937 28.8937 8.50813 27.8935 8.11806C26.8933 7.72799 25.827 7.54106 24.7554 7.56794Z" fill="white"/>
<path d="M17 15.824C16.6393 15.824 16.2934 15.9689 16.0383 16.227C15.7833 16.485 15.64 16.835 15.64 17.2V29.0129L13.8822 27.2345C13.627 26.9763 13.2809 26.8312 12.92 26.8312C12.5591 26.8312 12.213 26.9763 11.9578 27.2345C11.7026 27.4926 11.5592 27.8428 11.5592 28.208C11.5592 28.5731 11.7026 28.9233 11.9578 29.1815L16.0378 33.3095C16.1641 33.4374 16.3141 33.5389 16.4792 33.6082C16.6443 33.6774 16.8213 33.7131 17 33.7131C17.1787 33.7131 17.3557 33.6774 17.5208 33.6082C17.6859 33.5389 17.8359 33.4374 17.9622 33.3095L22.0422 29.1815C22.2974 28.9233 22.4408 28.5731 22.4408 28.208C22.4408 27.8428 22.2974 27.4926 22.0422 27.2345C21.787 26.9763 21.4409 26.8312 21.08 26.8312C20.7191 26.8312 20.373 26.9763 20.1178 27.2345L18.36 29.0129V17.2C18.36 16.835 18.2167 16.485 17.9617 16.227C17.7066 15.9689 17.3607 15.824 17 15.824Z" fill="white"/>
</svg>
