<svg width="636" height="131" viewBox="0 0 636 131" fill="none" xmlns="http://www.w3.org/2000/svg">
<path d="M21.44 2.19991H44.96L66.4 103H46.56L42.4 81.2399H22.4L18.24 103H0L21.44 2.19991ZM32.32 29.8799L25.28 66.0399H39.68L32.96 29.8799H32.32Z" fill="black"/>
<path d="M91.3625 79.4799C88.8025 79.4799 86.2425 79.1599 84.0025 78.5199C83.0425 79.4799 82.5625 80.7599 82.5625 82.1999C82.5625 84.9199 84.1625 86.6799 88.3225 86.6799H99.3625C113.123 86.6799 121.603 93.5599 121.603 106.2C121.603 122.68 108.003 130.2 90.8825 130.2C76.0025 130.2 63.8425 124.6 63.8425 113.08C63.8425 105.72 68.8025 101.88 75.0425 99.9599C70.0825 98.3599 67.2025 93.8799 67.2025 88.2799C67.2025 82.1999 71.2025 77.8799 76.6425 75.3199C70.7225 71.3199 67.0425 64.7599 67.0425 55.9599V54.1999C67.0425 39.4799 77.7625 30.8399 91.3625 30.8399C97.1225 30.8399 102.563 32.5999 106.883 35.7999C110.083 30.5199 115.363 26.6799 120.643 26.6799V42.8399C118.562 42.8399 115.843 43.1599 113.603 43.7999C115.043 46.8399 115.843 50.3599 115.843 54.1999V55.9599C115.843 70.6799 105.123 79.4799 91.3625 79.4799ZM79.2025 110.04C79.2025 115 84.1625 118.04 91.0425 118.04C99.2025 118.04 104.323 115.16 104.323 109.72C104.323 105.4 101.283 103.48 96.8025 103.48H86.5625C81.9225 103.48 79.2025 106.04 79.2025 110.04ZM91.3625 66.1999C95.8425 66.1999 97.6025 61.8799 97.6025 56.2799V53.8799C97.6025 48.1199 95.8425 43.9599 91.3625 43.9599C86.8825 43.9599 85.2825 48.1199 85.2825 53.8799V56.2799C85.2825 61.8799 86.8825 66.1999 91.3625 66.1999Z" fill="black"/>
<path d="M151.669 60.7599C151.669 50.9999 150.389 45.3999 145.109 45.3999C139.829 45.3999 138.229 50.9999 138.229 60.7599H151.669ZM119.349 69.2399V65.8799C119.349 44.9199 126.709 30.8399 145.109 30.8399C163.349 30.8399 169.909 44.5999 169.909 65.5599V71.9599H138.229V74.8399C138.229 84.2799 139.829 89.7199 145.429 89.7199C150.229 89.7199 152.149 85.8799 152.149 78.6799V77.0799H169.429V78.3599C169.429 94.1999 160.949 104.28 145.749 104.28C127.829 104.28 119.349 91.7999 119.349 69.2399Z" fill="black"/>
<path d="M193.076 58.5199V103H174.196V32.1199H193.076V39.9599C195.156 34.8399 200.916 30.8399 208.436 30.8399C221.076 30.8399 225.076 40.2799 225.076 49.5599V103H206.196V54.8399C206.196 49.7199 204.436 46.8399 200.276 46.8399C195.156 46.8399 193.076 51.9599 193.076 58.5199Z" fill="black"/>
<path d="M248.47 60.1199V74.8399C248.47 84.2799 250.07 89.5599 255.35 89.5599C260.47 89.5599 261.59 84.1199 261.59 75.7999V72.2799H279.03V74.8399C279.03 93.5599 271.19 104.28 255.51 104.28C238.07 104.28 229.43 92.1199 229.43 69.2399V65.8799C229.43 42.9999 238.07 30.8399 255.51 30.8399C271.19 30.8399 279.03 41.5599 279.03 60.2799V62.8399H261.59V59.3199C261.59 50.9999 260.47 45.5599 255.35 45.5599C250.07 45.5599 248.47 50.8399 248.47 60.1199Z" fill="black"/>
<path d="M296.516 104.92L277.156 32.1199H295.716L305.636 74.6799H306.276L316.356 32.1199H332.996L307.716 128.92H289.956L296.516 104.92Z" fill="black"/>
<path d="M387.39 2.19991H410.91L432.35 103H412.51L408.35 81.2399H388.35L384.19 103H365.95L387.39 2.19991ZM398.27 29.8799L391.23 66.0399H405.63L398.91 29.8799H398.27Z" fill="black"/>
<path d="M466.946 2.67992L465.826 16.4399C463.746 15.6399 462.466 15.3199 460.226 15.3199C455.746 15.3199 454.786 18.1999 454.786 21.8799V32.1199H464.226V45.2399H454.786V103H435.906V45.2399H429.506V32.1199H435.906V22.6799C435.906 9.55992 442.626 0.919922 456.546 0.919922C461.346 0.919922 464.386 1.55992 466.946 2.67992Z" fill="black"/>
<path d="M504.499 32.1199L504.019 50.3599C501.939 49.7199 499.699 49.0799 496.179 49.0799C488.019 49.0799 485.939 54.8399 485.939 63.3199V103H467.059V32.1199H485.939V41.7199C487.859 34.3599 492.819 31.1599 499.379 31.1599C501.619 31.1599 503.219 31.6399 504.499 32.1199Z" fill="black"/>
<path d="M507.177 32.1199H526.057V103H507.177V32.1199ZM507.177 23.4799V3.63992H526.057V23.4799H507.177Z" fill="black"/>
<path d="M549.42 60.1199V74.8399C549.42 84.2799 551.02 89.5599 556.3 89.5599C561.42 89.5599 562.54 84.1199 562.54 75.7999V72.2799H579.98V74.8399C579.98 93.5599 572.14 104.28 556.46 104.28C539.02 104.28 530.38 92.1199 530.38 69.2399V65.8799C530.38 42.9999 539.02 30.8399 556.46 30.8399C572.14 30.8399 579.98 41.5599 579.98 60.2799V62.8399H562.54V59.3199C562.54 50.9999 561.42 45.5599 556.3 45.5599C551.02 45.5599 549.42 50.8399 549.42 60.1199Z" fill="black"/>
<path d="M611.497 79.4799V70.3599L606.698 73.8799C602.538 76.7599 599.338 79.1599 599.338 84.1199C599.338 87.9599 601.418 90.1999 604.778 90.1999C609.258 90.1999 611.497 85.3999 611.497 79.4799ZM630.057 55.3199V87.1599C630.057 89.2399 630.538 90.1999 632.458 90.1999C633.418 90.1999 634.057 90.0399 635.338 89.5599V101.08C632.778 102.84 629.738 104.12 625.418 104.12C619.338 104.12 614.698 101.24 612.778 94.9999C610.538 100.44 605.097 104.12 598.057 104.12C587.018 104.12 581.258 96.9199 581.258 87.1599C581.258 75.4799 589.578 70.1999 600.458 63.6399L611.497 56.9199V54.0399C611.497 49.2399 610.857 45.3999 606.378 45.3999C601.898 45.3999 600.938 49.5599 600.938 54.0399V57.8799H583.497V53.5599C583.497 40.1199 590.858 30.8399 606.858 30.8399C622.858 30.8399 630.057 39.6399 630.057 55.3199Z" fill="black"/>
<circle cx="344" cy="87" r="17" fill="#C30000"/>
<circle cx="344" cy="87" r="13" stroke="white" stroke-width="2"/>
</svg>
