<svg width="24" height="16" viewBox="0 0 24 16" fill="none" xmlns="http://www.w3.org/2000/svg">
<path d="M1.27354 0.951904C0.989548 0.978552 0.748763 1.24205 0.750005 1.52498V15.2788C0.750022 15.5789 1.02522 15.8519 1.3277 15.8519H22.7026C23.005 15.8519 23.2802 15.5789 23.2803 15.2788V1.52498C23.2802 1.22495 23.005 0.951933 22.7026 0.951904H1.27354ZM2.91637 2.09806H21.1139L12.0151 9.35106L2.91637 2.09806ZM1.9054 2.7965L8.91902 8.34818L1.9054 13.9625V2.7965ZM22.1249 2.7965V13.9625L15.1112 8.34818L22.1249 2.7965ZM9.85779 9.10931L11.636 10.5599C11.8466 10.733 12.1837 10.733 12.3942 10.5599L14.1725 9.10931L21.15 14.7057H2.88027L9.85779 9.10931Z" fill="black"/>
</svg>
