<svg width="25" height="20" viewBox="0 0 25 20" fill="none" xmlns="http://www.w3.org/2000/svg">
<path fill-rule="evenodd" clip-rule="evenodd" d="M1.94595 0H22.4108C23.4811 0 24.3567 0.875676 24.3567 1.94595C24.3567 3.01622 23.4811 3.89189 22.4108 3.89189H1.94595C0.875675 3.89189 0 3.01622 0 1.94595C0 0.875676 0.875675 0 1.94595 0Z" fill="white"/>
<path fill-rule="evenodd" clip-rule="evenodd" d="M1.94595 7.65405H22.4108C23.4811 7.65405 24.3567 8.52973 24.3567 9.6C24.3567 10.6703 23.4811 11.5459 22.4108 11.5459H1.94595C0.875675 11.5459 0 10.6703 0 9.6C0 8.52973 0.875675 7.65405 1.94595 7.65405Z" fill="white"/>
<path fill-rule="evenodd" clip-rule="evenodd" d="M1.94595 15.3081H22.4108C23.4811 15.3081 24.3567 16.1838 24.3567 17.2541C24.3567 18.3243 23.4811 19.2 22.4108 19.2H1.94595C0.875675 19.2 0 18.3243 0 17.2541C0 16.1838 0.875675 15.3081 1.94595 15.3081Z" fill="white"/>
</svg>
