<svg width="84" height="84" viewBox="0 0 84 84" fill="none" xmlns="http://www.w3.org/2000/svg">
<path fill-rule="evenodd" clip-rule="evenodd" d="M42 0C53.6386 0 64.0121 4.80723 71.6024 12.3976C79.1928 19.988 84 30.3614 84 42C84 53.6386 79.1928 64.0121 71.6024 71.6024C64.0121 79.1928 53.6386 84 42 84C30.3614 84 19.988 79.1928 12.3976 71.6024C4.80723 64.0121 0 53.6386 0 42C0 30.3614 4.80723 19.988 12.3976 12.3976C19.988 4.80723 30.3614 0 42 0ZM69.5783 14.4217C62.494 7.33735 52.6265 3.03614 42 3.03614C31.1205 3.03614 21.506 7.33735 14.4217 14.4217C7.33735 21.506 3.03614 31.1205 3.03614 42C3.03614 52.6265 7.33735 62.494 14.4217 69.5783C21.506 76.4096 31.1205 80.9639 42 80.9639C52.6265 80.9639 62.494 76.4096 69.5783 69.5783C76.4096 62.494 80.9639 52.6265 80.9639 42C80.9639 31.1205 76.4096 21.506 69.5783 14.4217ZM58.4458 44.2771L46.8072 50.8554L35.4217 57.4337C33.3976 58.6988 31.3735 58.4458 31.3735 55.1566V42V28.5904C31.3735 25.8072 32.8916 24.7952 35.1687 26.3133L46.8072 32.8916L58.4458 39.4699C60.4699 40.7349 60.7229 43.0121 58.4458 44.2771Z" fill="white"/>
</svg>
