<svg width="14" height="18" viewBox="0 0 14 18" fill="none" xmlns="http://www.w3.org/2000/svg">
<path d="M6.03475 2.35179V12.2837H7.22841V2.35179L8.87526 4.04673L9.71918 3.17817L6.63158 0L3.54378 3.17817L4.3877 4.04673L6.03475 2.35179ZM11.8706 5.96198H8.59614V7.1905H11.8706C11.9804 7.1905 12.0695 7.28223 12.0695 7.39525V16.5667C12.0695 16.6798 11.9804 16.7715 11.8706 16.7715H1.3926C1.28279 16.7715 1.19366 16.6798 1.19366 16.5667V7.39525C1.19366 7.28223 1.28279 7.1905 1.3926 7.1905H4.66701V5.96198H1.3926C0.624881 5.96198 0 6.60511 0 7.39525V16.5667C0 17.3569 0.624881 18 1.3926 18H11.8706C12.6383 18 13.2632 17.3569 13.2632 16.5667V7.39525C13.2632 6.60511 12.6383 5.96198 11.8706 5.96198Z" fill="white"/>
</svg>
