<svg width="20" height="17" viewBox="0 0 20 17" fill="none" xmlns="http://www.w3.org/2000/svg">
<path d="M12.251 0.0677044C12.1753 0.0237044 12.0893 0.000403996 12.0018 3.99563e-06C11.9142 -0.000346004 11.8281 0.0223036 11.752 0.0657036L4.8665 4.0003H2.5C1.8371 4.0009 1.2016 4.2645 0.73291 4.7332C0.2642 5.2019 0.00061 5.8374 0 6.5003V10.5003C0.00061 11.1631 0.2642 11.7986 0.73291 12.2674C1.2016 12.7361 1.8371 12.9997 2.5 13.0003H4.8665L11.752 16.9348C11.8281 16.9782 11.9142 17.0009 12.0018 17.0005C12.0894 17.0001 12.1753 16.9768 12.251 16.9328C12.3268 16.8888 12.3896 16.8257 12.4333 16.7498C12.477 16.6739 12.5 16.5878 12.5 16.5003V0.500304C12.5 0.412704 12.4771 0.326604 12.4334 0.250704C12.3897 0.174704 12.3268 0.111604 12.251 0.0677044ZM1 10.5003V6.5003C1.0004 6.1026 1.1586 5.7213 1.4398 5.4401C1.721 5.1589 2.1023 5.0007 2.5 5.0003H4.5V12.0003H2.5C2.1023 11.9998 1.721 11.8417 1.4398 11.5604C1.1586 11.2792 1.0004 10.898 1 10.5003ZM11.5 15.6389L5.5 12.2102V4.7903L11.5 1.3616V15.6389Z" fill="white"/>
<path d="M19.5966 11.3033L14.6469 6.3535" stroke="white"/>
<path d="M19.5966 11.3033L14.6469 6.3535" stroke="white"/>
<path d="M19.5966 11.3033L14.6469 6.3535" stroke="white"/>
<path d="M19.5966 11.3033L14.6469 6.3535" stroke="white"/>
<path d="M19.5966 11.3033L14.6469 6.3535" stroke="white"/>
<path d="M14.6464 11.3032L19.5962 6.3534" stroke="white"/>
<path d="M14.6464 11.3032L19.5962 6.3534" stroke="white"/>
<path d="M14.6464 11.3032L19.5962 6.3534" stroke="white"/>
<path d="M14.6464 11.3032L19.5962 6.3534" stroke="white"/>
<path d="M14.6464 11.3032L19.5962 6.3534" stroke="white"/>
</svg>
