<svg width="32" height="32" viewBox="0 0 32 32" fill="none" xmlns="http://www.w3.org/2000/svg">
<g clip-path="url(#clip0_1_6)">
<path d="M29.37 0.570006L16 13.943L2.627 0.570006C2.059 0.00200605 1.139 0.00200605 0.57 0.570006C0.000999808 1.13801 0.0019998 2.05901 0.57 2.62701L13.943 16L0.569 29.37C0.00199986 29.938 0.000999868 30.858 0.568 31.427L0.57 31.428C1.137 31.997 2.059 31.998 2.628 31.429L16 18.057L29.369 31.429C29.937 31.997 30.858 31.997 31.427 31.428L31.429 31.426C31.996 30.858 31.995 29.938 31.428 29.37L18.057 16L31.427 2.62701C31.995 2.05901 31.995 1.13901 31.427 0.570006C30.859 0.00100607 29.938 0.00200605 29.37 0.570006Z" fill="white"/>
</g>
<defs>
<clipPath id="clip0_1_6">
<rect width="32" height="32" fill="white"/>
</clipPath>
</defs>
</svg>
