<svg width="19" height="17" viewBox="0 0 19 17" fill="none" xmlns="http://www.w3.org/2000/svg">
<path d="M12.251 0.0677006C12.1753 0.0237006 12.0893 0.000400181 12.0018 1.80933e-07C11.9142 -0.000349819 11.8281 0.0222998 11.752 0.0656998L4.8665 4.0003H2.5C1.8371 4.0009 1.2016 4.2645 0.73291 4.7332C0.2642 5.2019 0.00061 5.8374 0 6.5003V10.5003C0.00061 11.1631 0.2642 11.7986 0.73291 12.2674C1.2016 12.7361 1.8371 12.9997 2.5 13.0003H4.8665L11.752 16.9348C11.8281 16.9782 11.9142 17.0009 12.0018 17.0005C12.0894 17.0001 12.1753 16.9768 12.251 16.9328C12.3268 16.8888 12.3896 16.8257 12.4333 16.7498C12.477 16.6739 12.5 16.5878 12.5 16.5003V0.500301C12.5 0.412701 12.4771 0.3266 12.4334 0.2507C12.3897 0.1747 12.3268 0.111601 12.251 0.0677006ZM1 10.5003V6.5003C1.0004 6.1026 1.1586 5.7213 1.4398 5.4401C1.721 5.1589 2.1023 5.0007 2.5 5.0003H4.5V12.0003H2.5C2.1023 11.9998 1.721 11.8417 1.4398 11.5604C1.1586 11.2792 1.0004 10.898 1 10.5003ZM11.5 15.6389L5.5 12.2102V4.7903L11.5 1.3616V15.6389ZM15.9695 8.5003C15.9702 9.2719 15.7914 10.0332 15.4473 10.7239C15.4056 10.8066 15.3411 10.8759 15.2623 10.9246C15.1834 10.9732 15.0927 10.9991 15 10.9993C14.9224 10.9995 14.8457 10.9814 14.7764 10.9466C14.6578 10.8871 14.5677 10.7831 14.5258 10.6574C14.4839 10.5316 14.4936 10.3943 14.5527 10.2757C14.8273 9.7241 14.9702 9.1164 14.9702 8.5003C14.9702 7.8841 14.8273 7.2764 14.5527 6.7249C14.4936 6.6062 14.4839 6.469 14.5258 6.3432C14.5677 6.2174 14.6578 6.1134 14.7764 6.054C14.8457 6.0191 14.9224 6.001 15 6.0012C15.0927 6.0014 15.1834 6.0273 15.2623 6.076C15.3411 6.1246 15.4049 6.1942 15.4467 6.2769C15.7908 6.9676 15.9702 7.7286 15.9695 8.5003ZM17.9482 12.7219L17.9472 12.7239C17.888 12.8425 17.7835 12.9323 17.6577 12.9742C17.532 13.0162 17.3948 13.0064 17.2762 12.9471C17.1576 12.8879 17.0675 12.7839 17.0256 12.6582C16.9837 12.5324 16.9934 12.3952 17.0527 12.2766C17.6128 11.1489 17.9132 9.91 17.9319 8.651C17.9328 8.6007 17.9405 8.5506 17.9405 8.5003C17.9405 8.4499 17.9328 8.3999 17.9319 8.3495C17.9132 7.0905 17.6128 5.8516 17.0527 4.7239C16.9934 4.6054 16.9837 4.4681 17.0256 4.3424C17.0675 4.2166 17.1576 4.1127 17.2762 4.0534C17.3948 3.9941 17.532 3.9844 17.6577 4.0263C17.7835 4.0682 17.8874 4.1584 17.9467 4.2769L17.9482 4.2785C18.6005 5.5903 18.94 7.0353 18.94 8.5002C18.94 9.9652 18.6005 11.4102 17.9482 12.7219Z" fill="white"/>
</svg>
